<mxfile host="app.diagrams.net" modified="2024-01-22T04:10:04.040Z" agent="Mozilla/5.0 (Windows NT 10.0; Win64; x64) AppleWebKit/537.36 (KHTML, like Gecko) Chrome/120.0.0.0 Safari/537.36" version="22.1.21" etag="juLC4FrKB-i4y2nxctHY" type="github">
  <diagram name="Halaman-1" id="RK1ZnB27lg2ZLie6g4S-">
    <mxGraphModel>
      <root>
        <mxCell id="0" />
        <mxCell id="1" parent="0" />
      </root>
    </mxGraphModel>
  </diagram>
</mxfile>
